<svg id="Capa_1" data-name="Capa 1" xmlns="http://www.w3.org/2000/svg" viewBox="0 0 316.89 257"><defs><style>.cls-1{fill:#383838;}</style></defs><title>database</title><path class="cls-1" d="M182.47,212.2c0-.76,0-1.5.06-2.25H38.5a38.5,38.5,0,0,0,0,77H238A78.22,78.22,0,0,1,182.47,212.2Zm-101,46.25h-35a10,10,0,0,1,0-20h35a10,10,0,0,1,0,20Z" transform="translate(0 -29.94)"/><path class="cls-1" d="M38.5,197H184A78.08,78.08,0,0,1,287.7,139a38.52,38.52,0,0,0-33.2-19H38.5a38.51,38.51,0,0,0,0,77Zm8-48.5h35a10,10,0,0,1,0,20h-35a10,10,0,0,1,0-20Z" transform="translate(0 -29.94)"/><path class="cls-1" d="M38.5,106.94h216a38.5,38.5,0,0,0,0-77H38.5a38.5,38.5,0,0,0,0,77Zm199-51.25a12.75,12.75,0,1,1-12.75,12.75A12.76,12.76,0,0,1,237.5,55.69Zm-191,2.75h35a10,10,0,0,1,0,20h-35a10,10,0,0,1,0-20Z" transform="translate(0 -29.94)"/><path class="cls-1" d="M260.56,155.86a56.34,56.34,0,1,0,56.33,56.34A56.34,56.34,0,0,0,260.56,155.86Zm30.09,44.4L255,235.91a4,4,0,0,1-5.66,0L231.46,218a4,4,0,0,1,0-5.65l3.54-3.54a4,4,0,0,1,5.65,0l11.52,11.52,29.29-29.29a4,4,0,0,1,5.66,0l3.53,3.53a4,4,0,0,1,0,5.66Z" transform="translate(0 -29.94)"/></svg>