<svg id="Capa_1" data-name="Capa 1" xmlns="http://www.w3.org/2000/svg" viewBox="0 0 512 512"><defs><style>.cls-1{fill:#383838;}</style></defs><title>hand</title><path class="cls-1" d="M48,256H16A16,16,0,0,0,0,272V496a16,16,0,0,0,16,16H48a16,16,0,0,0,16-16V272A16,16,0,0,0,48,256Z" transform="translate(0 0)"/><path class="cls-1" d="M501.89,290.53a47.93,47.93,0,0,0-67.33-8.42l-118,91.78A48.07,48.07,0,0,1,287.07,384H176a80,80,0,0,0,80-80,16,16,0,0,0-16-16H96V480H309a79.88,79.88,0,0,0,49.12-16.86L493.47,357.86A48,48,0,0,0,501.89,290.53Z" transform="translate(0 0)"/><path class="cls-1" d="M336,0A112.12,112.12,0,0,0,224,112c0,57.47,89.86,159.26,100.1,170.69a16,16,0,0,0,23.81,0C358.15,271.26,448,169.47,448,112A112.12,112.12,0,0,0,336,0Zm0,160a48,48,0,1,1,48-48A48,48,0,0,1,336,160Z" transform="translate(0 0)"/></svg>