<svg id="Capa_1" data-name="Capa 1" xmlns="http://www.w3.org/2000/svg" viewBox="0 0 512 512"><defs><style>.cls-1{fill:#383838;}</style></defs><title>internet (1)</title><path class="cls-1" d="M437,75A256,256,0,0,0,75,437,256,256,0,0,0,437,75ZM96.22,96.22A225.12,225.12,0,0,1,174,45.33a211,211,0,0,0-21.43,33,294.85,294.85,0,0,0-19.73,47,462.44,462.44,0,0,1-52.39-11.6A230.58,230.58,0,0,1,96.22,96.22Zm-34,43.36a463.71,463.71,0,0,0,62.46,14.81A436,436,0,0,0,113.62,241H30.54A224,224,0,0,1,62.23,139.58ZM60.59,369.64A224,224,0,0,1,30.54,271h83.14a435.56,435.56,0,0,0,10.86,84.18A485.94,485.94,0,0,0,60.59,369.64Zm35.63,46.14a228.81,228.81,0,0,1-17.83-20A483.71,483.71,0,0,1,132.6,384.3,295.1,295.1,0,0,0,152.53,432,207.25,207.25,0,0,0,176,467.46,225.3,225.3,0,0,1,96.22,415.78ZM241,478.11c-22.8-6.38-44.38-27.21-61.93-60.24a261.66,261.66,0,0,1-16.15-37.59c24.73-2.72,51-4.33,78.08-4.71Zm0-132.57a848.18,848.18,0,0,0-86.59,5.5,402.8,402.8,0,0,1-10.66-80H241v74.52ZM241,241H143.67a403.12,403.12,0,0,1,10.83-82.2A833,833,0,0,0,241,164.84Zm0-106.17c-27.14-.55-53.4-2.32-77.95-5.21a260.78,260.78,0,0,1,16-37.21c17.55-33,39.13-53.86,61.93-60.25V134.81Zm209.74,6.37A224.14,224.14,0,0,1,481.47,241H398.38a436.83,436.83,0,0,0-10.85-85.64A491.19,491.19,0,0,0,450.72,141.18Zm-34.94-45a228.36,228.36,0,0,1,16.92,18.91,491,491,0,0,1-53.21,11.11,295.22,295.22,0,0,0-20-47.94,211.47,211.47,0,0,0-21.43-33A225.12,225.12,0,0,1,415.78,96.22ZM271,271h97.25a401.6,401.6,0,0,1-10.81,80.61,835.69,835.69,0,0,0-86.44-6Zm0-30v-76a846.79,846.79,0,0,0,86.65-5.46A403.2,403.2,0,0,1,368.33,241Zm0-208.84h0c22.8,6.39,44.38,27.22,61.93,60.25a261.07,261.07,0,0,1,16.24,37.85c-24.76,2.71-51.11,4.3-78.18,4.67Zm0,446V375.66c27.12.53,53.35,2.28,77.9,5.15a260.34,260.34,0,0,1-16,37.06C315.4,450.9,293.82,471.73,271,478.11Zm144.76-62.33A225.3,225.3,0,0,1,336,467.46,207.25,207.25,0,0,0,359.47,432a294.54,294.54,0,0,0,19.68-46.91,464.3,464.3,0,0,1,53.52,11.86A229.09,229.09,0,0,1,415.78,415.78ZM450.61,371a464.4,464.4,0,0,0-63.33-15,434.56,434.56,0,0,0,11-85h83.15A224.08,224.08,0,0,1,450.61,371Z" transform="translate(0 0)"/></svg>